<?xml version="1.0" ?>

<!-- Uploaded to: SVG Repo, www.svgrepo.com, Generator: SVG Repo Mixer Tools -->
<svg width="800px" height="800px" viewBox="0 0 32 32" id="svg5" version="1.1" xmlns="http://www.w3.org/2000/svg" xmlns:svg="http://www.w3.org/2000/svg">

<defs id="defs2"/>

<g id="layer1" transform="translate(-156,-52)">

<path d="m 182.5,53.999999 c -1.92115,2e-6 -3.5,1.578853 -3.5,3.500001 0,0.599749 0.15567,1.166705 0.42578,1.662106 l -1.81445,1.812509 c -1.54058,-1.233463 -3.49112,-1.97461 -5.61133,-1.974617 -2.12021,6e-6 -4.07075,0.741151 -5.61132,1.974613 l -1.8086,-1.808599 c 0.55669,-1.036751 0.58597,-2.331992 -0.041,-3.417962 -0.96178,-1.665852 -3.12126,-2.24498 -4.7871,-1.283205 -1.66585,0.96178 -2.24303,3.121254 -1.28125,4.787106 0.94499,1.636771 3.04409,2.222378 4.69726,1.330076 l 1.80664,1.806646 c -1.23346,1.540575 -1.97461,3.491124 -1.97461,5.611327 0,2.120208 0.74116,4.070747 1.97462,5.611327 l -1.81251,1.81445 -0.002,1.6e-4 c -0.49541,-0.27012 -1.06041,-0.42578 -1.66015,-0.42578 -1.92115,-1e-5 -3.50001,1.57885 -3.5,3.5 -1e-5,1.92115 1.57885,3.5 3.49999,3.49999 1.92115,1e-5 3.5,-1.57884 3.50001,-3.49999 -1e-5,-0.59975 -0.15567,-1.1667 -0.42578,-1.66211 l 1.79101,-1.78906 a 1,1 0 0 0 0.42969,0.2832 c 1.47123,1.04807 3.2671,1.66797 5.20508,1.66797 2.00493,-1e-5 3.85893,-0.66054 5.35742,-1.77539 a 1,1 0 0 0 0.23438,-0.18359 c 0.006,-0.005 0.0128,-0.0108 0.0194,-0.0158 l 1.81446,1.81445 c -0.27012,0.4954 -0.42578,1.06041 -0.42579,1.66016 1e-5,1.92115 1.57886,3.5 3.50001,3.5 1.92115,0 3.5,-1.57885 3.5,-3.5 0,-1.92116 -1.57885,-3.50001 -3.5,-3.5 -0.59975,-1e-5 -1.16475,0.15566 -1.66015,0.42578 l -0.002,1.5e-4 -1.81249,-1.81445 c 1.23345,-1.54058 1.9746,-3.491127 1.97461,-5.611334 0,-2.120203 -0.74116,-4.070747 -1.97461,-5.611329 l 1.81446,-1.814449 c 0.4954,0.270119 1.0604,0.42578 1.66014,0.42578 1.92116,2e-6 3.50001,-1.57885 3.5,-3.500002 1e-5,-1.921148 -1.57884,-3.499998 -3.5,-3.5 z m -21.0332,1.992192 c 0.53226,-0.01642 1.05017,0.254131 1.33984,0.755854 0.42134,0.729783 0.17901,1.633345 -0.55078,2.054685 -0.72978,0.42134 -1.63139,0.178999 -2.05273,-0.550774 -0.42134,-0.729783 -0.18096,-1.633349 0.54883,-2.054689 0.22806,-0.13167 0.4729,-0.197628 0.71484,-0.205076 z m 21.0332,0.0078 c 0.84027,2e-6 1.50001,0.659733 1.5,1.500001 1e-5,0.840271 -0.65972,1.500004 -1.5,1.500002 -0.84026,2e-6 -1.5,-0.659729 -1.49999,-1.500006 C 181,56.659725 181.65973,55.999993 182.5,55.999991 Z M 172,60.99999 c 3.87784,4e-6 7,3.122173 7,7.000006 0,1.774843 -0.65516,3.389734 -1.73633,4.621094 -0.61002,-1.11099 -1.56136,-2.008615 -2.71094,-2.550782 C 175.43496,69.334587 176,68.229549 176,66.999989 c 0,-2.19728 -1.80271,-3.999991 -4,-3.999999 -2.19728,4e-6 -4,1.802718 -4,3.999997 0,1.22956 0.56505,2.334606 1.44727,3.070322 -1.1494,0.542412 -2.10104,1.439581 -2.71094,2.550781 C 165.65516,71.38974 164.99999,69.774846 165,67.999993 165.00001,64.12216 168.12217,61 172,60.99999 Z m 0,3.999999 c 1.11642,4e-6 2.00001,0.883587 2,2 0,1.116421 -0.88358,2.000003 -2,1.999998 -1.11641,10e-6 -1.99999,-0.883578 -2,-1.999999 0,-1.116408 0.88358,-1.999998 2,-1.999999 z m 1e-5,6.500001 c 1.67074,0 3.08931,1.01432 3.6914,2.45508 -1.07046,0.66318 -2.3345,1.04492 -3.6914,1.04492 -1.3569,0 -2.62095,-0.38176 -3.69141,-1.04492 0.60203,-1.44071 2.02089,-2.45507 3.69141,-2.45508 z M 161.5,77 c 0.84027,-1e-5 1.5,0.65972 1.50001,1.5 -1e-5,0.84026 -0.65974,1.5 -1.50001,1.49999 -0.84027,0 -1.5,-0.65973 -1.5,-1.49999 0,-0.84028 0.65974,-1.50001 1.5,-1.5 z m 21,0 c 0.84027,-1e-5 1.50001,0.65972 1.5,1.5 1e-5,0.84026 -0.65973,1.49999 -1.5,1.49999 -0.84027,0 -1.5,-0.65973 -1.49999,-1.5 C 181,77.65972 181.65973,76.99999 182.5,77 Z" id="path8726" style="color:#000000;fill:#000000;fill-rule:evenodd;stroke-linecap:round;stroke-linejoin:round;stroke-miterlimit:4.1;-inkscape-stroke:none"/>

</g>

</svg>