<?xml version="1.0" encoding="utf-8"?>

<!-- Uploaded to: SVG Repo, www.svgrepo.com, Generator: SVG Repo Mixer Tools -->
<svg version="1.1" id="Icons" xmlns="http://www.w3.org/2000/svg" xmlns:xlink="http://www.w3.org/1999/xlink" 
	 viewBox="0 0 32 32" xml:space="preserve">
<style type="text/css">
	.st0{fill:none;stroke:#000000;stroke-width:2;stroke-linecap:round;stroke-linejoin:round;stroke-miterlimit:10;}
</style>
<g>
	<path d="M7,26h20c0.6,0,1-0.4,1-1V3c0-0.6-0.4-1-1-1H8C5.8,2,4,3.8,4,6v21c0,0,0,0,0,0c0,1.7,1.3,3,3,3h20c0.6,0,1-0.4,1-1
		s-0.4-1-1-1H7c-0.6,0-1-0.4-1-1S6.4,26,7,26z M9.7,12c0.8-1.7,2.3-3,4.1-3.6C13.3,7.7,13,6.9,13,6c0-0.6,0.4-1,1-1s1,0.4,1,1
		c0,0.8,0.5,1.5,1.2,1.8l0.6,0.3c2.4,0.3,4.4,1.8,5.5,4c1.5,0.2,2.7,1.4,2.7,3s-1.2,2.8-2.7,3c-1.1,2.4-3.6,4-6.3,4s-5.2-1.6-6.3-4
		C8.2,17.8,7,16.5,7,15S8.2,12.2,9.7,12z"/>
	<path d="M14,17c0.6,0,1-0.4,1-1v-2c0-0.6-0.4-1-1-1s-1,0.4-1,1v2C13,16.6,13.4,17,14,17z"/>
	<path d="M18,17c0.6,0,1-0.4,1-1v-2c0-0.6-0.4-1-1-1s-1,0.4-1,1v2C17,16.6,17.4,17,18,17z"/>
</g>
</svg>