<?xml version="1.0" encoding="utf-8"?><!-- Uploaded to: SVG Repo, www.svgrepo.com, Generator: SVG Repo Mixer Tools -->
<svg width="800px" height="800px" viewBox="0 0 24 24" fill="none" xmlns="http://www.w3.org/2000/svg">
<path fill-rule="evenodd" clip-rule="evenodd" d="M3 3C3 1.89543 3.89543 1 5 1H17C19.2091 1 21 2.79086 21 5V19C21 21.2091 19.2091 23 17 23H5C3.89543 23 3 22.1046 3 21V3ZM6 3C5.44771 3 5 3.44772 5 4V20C5 20.5523 5.44772 21 6 21H8V3H6ZM10 3V21H17C18.1046 21 19 20.1046 19 19V5C19 3.89543 18.1046 3 17 3H10Z" fill="#0F0F0F"/>
</svg>