<svg xmlns="http://www.w3.org/2000/svg" viewBox="0 0 48 48" width="96px" height="96px">
    <path d="M 35.484375 5.984375 A 1.50015 1.50015 0 0 0 34.439453 8.5605469 L 36.878906 11 L 35.5 11 C 23.64339 11 14 20.64339 14 32.5 A 1.50015 1.50015 0 1 0 17 32.5 C 17 22.26461 25.26461 14 35.5 14 L 36.878906 14 L 34.439453 16.439453 A 1.50015 1.50015 0 1 0 36.560547 18.560547 L 41.431641 13.689453 A 1.50015 1.50015 0 0 0 41.423828 11.302734 L 36.560547 6.4394531 A 1.50015 1.50015 0 0 0 35.484375 5.984375 z M 12.5 6 C 8.9280619 6 6 8.9280619 6 12.5 L 6 35.5 C 6 39.071938 8.9280619 42 12.5 42 L 35.5 42 C 39.071938 42 42 39.071938 42 35.5 L 42 27.5 A 1.50015 1.50015 0 1 0 39 27.5 L 39 35.5 C 39 37.450062 37.450062 39 35.5 39 L 12.5 39 C 10.549938 39 9 37.450062 9 35.5 L 9 12.5 C 9 10.549938 10.549938 9 12.5 9 L 20.5 9 A 1.50015 1.50015 0 1 0 20.5 6 L 12.5 6 z"/>
</svg>